<mxfile host="app.diagrams.net" modified="2022-11-22T05:49:20.953Z" agent="5.0 (Windows NT 10.0; Win64; x64) AppleWebKit/537.36 (KHTML, like Gecko) Chrome/107.0.0.0 Safari/537.36" etag="CWmaJoCGmKW_o_viQdEV" version="20.5.3" type="github">
  <diagram id="kWM6Devj3ZmCq5ZHhV0W" name="第 1 页">
    <mxGraphModel dx="2842" dy="896" grid="1" gridSize="10" guides="1" tooltips="1" connect="1" arrows="1" fold="1" page="1" pageScale="1" pageWidth="1169" pageHeight="827" math="0" shadow="0">
      <root>
        <mxCell id="0" />
        <mxCell id="1" parent="0" />
        <mxCell id="HBnFO21-F81Gqix5t91M-265" style="edgeStyle=orthogonalEdgeStyle;rounded=0;orthogonalLoop=1;jettySize=auto;html=1;exitX=0.25;exitY=1;exitDx=0;exitDy=0;entryX=0.5;entryY=0;entryDx=0;entryDy=0;" edge="1" parent="1" source="HBnFO21-F81Gqix5t91M-166" target="HBnFO21-F81Gqix5t91M-261">
          <mxGeometry relative="1" as="geometry" />
        </mxCell>
        <mxCell id="HBnFO21-F81Gqix5t91M-266" style="edgeStyle=orthogonalEdgeStyle;rounded=0;orthogonalLoop=1;jettySize=auto;html=1;exitX=0.25;exitY=1;exitDx=0;exitDy=0;entryX=0.5;entryY=0;entryDx=0;entryDy=0;" edge="1" parent="1" source="HBnFO21-F81Gqix5t91M-166" target="HBnFO21-F81Gqix5t91M-262">
          <mxGeometry relative="1" as="geometry" />
        </mxCell>
        <mxCell id="HBnFO21-F81Gqix5t91M-267" style="edgeStyle=orthogonalEdgeStyle;rounded=0;orthogonalLoop=1;jettySize=auto;html=1;exitX=0.25;exitY=1;exitDx=0;exitDy=0;" edge="1" parent="1" source="HBnFO21-F81Gqix5t91M-166" target="HBnFO21-F81Gqix5t91M-263">
          <mxGeometry relative="1" as="geometry" />
        </mxCell>
        <mxCell id="HBnFO21-F81Gqix5t91M-166" value="" style="rounded=0;whiteSpace=wrap;html=1;strokeWidth=4;fillColor=#e1d5e7;dashed=1;strokeColor=#9673a6;" vertex="1" parent="1">
          <mxGeometry x="1770" y="340" width="1590" height="750" as="geometry" />
        </mxCell>
        <mxCell id="HBnFO21-F81Gqix5t91M-153" style="edgeStyle=orthogonalEdgeStyle;rounded=0;orthogonalLoop=1;jettySize=auto;html=1;exitX=0;exitY=0.25;exitDx=0;exitDy=0;entryX=0.75;entryY=1;entryDx=0;entryDy=0;" edge="1" parent="1" source="HBnFO21-F81Gqix5t91M-130" target="HBnFO21-F81Gqix5t91M-139">
          <mxGeometry relative="1" as="geometry" />
        </mxCell>
        <mxCell id="HBnFO21-F81Gqix5t91M-189" style="edgeStyle=orthogonalEdgeStyle;rounded=0;orthogonalLoop=1;jettySize=auto;html=1;exitX=0.75;exitY=0;exitDx=0;exitDy=0;entryX=0.5;entryY=1;entryDx=0;entryDy=0;" edge="1" parent="1" source="HBnFO21-F81Gqix5t91M-130" target="HBnFO21-F81Gqix5t91M-178">
          <mxGeometry relative="1" as="geometry" />
        </mxCell>
        <mxCell id="HBnFO21-F81Gqix5t91M-190" style="edgeStyle=orthogonalEdgeStyle;rounded=0;orthogonalLoop=1;jettySize=auto;html=1;exitX=0.75;exitY=0;exitDx=0;exitDy=0;entryX=0.558;entryY=0.983;entryDx=0;entryDy=0;entryPerimeter=0;" edge="1" parent="1" source="HBnFO21-F81Gqix5t91M-130" target="HBnFO21-F81Gqix5t91M-177">
          <mxGeometry relative="1" as="geometry" />
        </mxCell>
        <mxCell id="HBnFO21-F81Gqix5t91M-191" style="edgeStyle=orthogonalEdgeStyle;rounded=0;orthogonalLoop=1;jettySize=auto;html=1;exitX=0.75;exitY=0;exitDx=0;exitDy=0;entryX=0.5;entryY=1;entryDx=0;entryDy=0;" edge="1" parent="1" source="HBnFO21-F81Gqix5t91M-130" target="HBnFO21-F81Gqix5t91M-179">
          <mxGeometry relative="1" as="geometry" />
        </mxCell>
        <mxCell id="HBnFO21-F81Gqix5t91M-192" style="edgeStyle=orthogonalEdgeStyle;rounded=0;orthogonalLoop=1;jettySize=auto;html=1;exitX=0.75;exitY=0;exitDx=0;exitDy=0;entryX=0.5;entryY=1;entryDx=0;entryDy=0;" edge="1" parent="1" source="HBnFO21-F81Gqix5t91M-130" target="HBnFO21-F81Gqix5t91M-180">
          <mxGeometry relative="1" as="geometry" />
        </mxCell>
        <mxCell id="HBnFO21-F81Gqix5t91M-130" value="" style="rounded=0;whiteSpace=wrap;html=1;fillColor=#d5e8d4;dashed=1;strokeWidth=3;strokeColor=#82b366;" vertex="1" parent="1">
          <mxGeometry x="2060" y="550" width="1280" height="520" as="geometry" />
        </mxCell>
        <mxCell id="HBnFO21-F81Gqix5t91M-46" style="edgeStyle=orthogonalEdgeStyle;rounded=0;orthogonalLoop=1;jettySize=auto;html=1;exitX=0.5;exitY=1;exitDx=0;exitDy=0;" edge="1" parent="1" source="HBnFO21-F81Gqix5t91M-1" target="HBnFO21-F81Gqix5t91M-7">
          <mxGeometry relative="1" as="geometry" />
        </mxCell>
        <mxCell id="HBnFO21-F81Gqix5t91M-47" style="edgeStyle=orthogonalEdgeStyle;rounded=0;orthogonalLoop=1;jettySize=auto;html=1;exitX=0.5;exitY=1;exitDx=0;exitDy=0;" edge="1" parent="1" source="HBnFO21-F81Gqix5t91M-1" target="HBnFO21-F81Gqix5t91M-8">
          <mxGeometry relative="1" as="geometry" />
        </mxCell>
        <mxCell id="HBnFO21-F81Gqix5t91M-1" value="主项目" style="rounded=0;whiteSpace=wrap;html=1;" vertex="1" parent="1">
          <mxGeometry x="430" y="240" width="120" height="60" as="geometry" />
        </mxCell>
        <mxCell id="HBnFO21-F81Gqix5t91M-44" style="edgeStyle=orthogonalEdgeStyle;rounded=0;orthogonalLoop=1;jettySize=auto;html=1;exitX=0.5;exitY=1;exitDx=0;exitDy=0;entryX=0.5;entryY=0;entryDx=0;entryDy=0;" edge="1" parent="1" source="HBnFO21-F81Gqix5t91M-2" target="HBnFO21-F81Gqix5t91M-1">
          <mxGeometry relative="1" as="geometry" />
        </mxCell>
        <mxCell id="HBnFO21-F81Gqix5t91M-2" value="公共样式" style="rounded=0;whiteSpace=wrap;html=1;" vertex="1" parent="1">
          <mxGeometry x="730" y="110" width="120" height="60" as="geometry" />
        </mxCell>
        <mxCell id="HBnFO21-F81Gqix5t91M-43" style="edgeStyle=orthogonalEdgeStyle;rounded=0;orthogonalLoop=1;jettySize=auto;html=1;exitX=0.5;exitY=1;exitDx=0;exitDy=0;" edge="1" parent="1" source="HBnFO21-F81Gqix5t91M-3" target="HBnFO21-F81Gqix5t91M-1">
          <mxGeometry relative="1" as="geometry" />
        </mxCell>
        <mxCell id="HBnFO21-F81Gqix5t91M-3" value="公共方法" style="rounded=0;whiteSpace=wrap;html=1;" vertex="1" parent="1">
          <mxGeometry x="580" y="110" width="120" height="60" as="geometry" />
        </mxCell>
        <mxCell id="HBnFO21-F81Gqix5t91M-42" style="edgeStyle=orthogonalEdgeStyle;rounded=0;orthogonalLoop=1;jettySize=auto;html=1;exitX=0.5;exitY=1;exitDx=0;exitDy=0;" edge="1" parent="1" source="HBnFO21-F81Gqix5t91M-4" target="HBnFO21-F81Gqix5t91M-1">
          <mxGeometry relative="1" as="geometry" />
        </mxCell>
        <mxCell id="HBnFO21-F81Gqix5t91M-4" value="公共hooks" style="rounded=0;whiteSpace=wrap;html=1;" vertex="1" parent="1">
          <mxGeometry x="270" y="110" width="120" height="60" as="geometry" />
        </mxCell>
        <mxCell id="HBnFO21-F81Gqix5t91M-41" style="edgeStyle=orthogonalEdgeStyle;rounded=0;orthogonalLoop=1;jettySize=auto;html=1;exitX=0.5;exitY=1;exitDx=0;exitDy=0;" edge="1" parent="1" source="HBnFO21-F81Gqix5t91M-5" target="HBnFO21-F81Gqix5t91M-1">
          <mxGeometry relative="1" as="geometry" />
        </mxCell>
        <mxCell id="HBnFO21-F81Gqix5t91M-5" value="公共指令" style="rounded=0;whiteSpace=wrap;html=1;" vertex="1" parent="1">
          <mxGeometry x="120" y="110" width="120" height="60" as="geometry" />
        </mxCell>
        <mxCell id="HBnFO21-F81Gqix5t91M-45" style="edgeStyle=orthogonalEdgeStyle;rounded=0;orthogonalLoop=1;jettySize=auto;html=1;exitX=1;exitY=0.5;exitDx=0;exitDy=0;entryX=0;entryY=0.5;entryDx=0;entryDy=0;" edge="1" parent="1" source="HBnFO21-F81Gqix5t91M-6" target="HBnFO21-F81Gqix5t91M-1">
          <mxGeometry relative="1" as="geometry" />
        </mxCell>
        <mxCell id="HBnFO21-F81Gqix5t91M-6" value="公共组件" style="rounded=0;whiteSpace=wrap;html=1;" vertex="1" parent="1">
          <mxGeometry x="270" y="240" width="120" height="60" as="geometry" />
        </mxCell>
        <mxCell id="HBnFO21-F81Gqix5t91M-50" style="edgeStyle=orthogonalEdgeStyle;rounded=0;orthogonalLoop=1;jettySize=auto;html=1;exitX=0.5;exitY=1;exitDx=0;exitDy=0;entryX=0.5;entryY=0;entryDx=0;entryDy=0;" edge="1" parent="1" source="HBnFO21-F81Gqix5t91M-7" target="HBnFO21-F81Gqix5t91M-17">
          <mxGeometry relative="1" as="geometry" />
        </mxCell>
        <mxCell id="HBnFO21-F81Gqix5t91M-51" style="edgeStyle=orthogonalEdgeStyle;rounded=0;orthogonalLoop=1;jettySize=auto;html=1;exitX=0.5;exitY=1;exitDx=0;exitDy=0;entryX=0.5;entryY=0;entryDx=0;entryDy=0;" edge="1" parent="1" source="HBnFO21-F81Gqix5t91M-7" target="HBnFO21-F81Gqix5t91M-18">
          <mxGeometry relative="1" as="geometry" />
        </mxCell>
        <mxCell id="HBnFO21-F81Gqix5t91M-7" value="web" style="rounded=0;whiteSpace=wrap;html=1;" vertex="1" parent="1">
          <mxGeometry x="20" y="360" width="120" height="60" as="geometry" />
        </mxCell>
        <mxCell id="HBnFO21-F81Gqix5t91M-52" style="edgeStyle=orthogonalEdgeStyle;rounded=0;orthogonalLoop=1;jettySize=auto;html=1;exitX=0.5;exitY=1;exitDx=0;exitDy=0;entryX=0.5;entryY=0;entryDx=0;entryDy=0;" edge="1" parent="1" source="HBnFO21-F81Gqix5t91M-8" target="HBnFO21-F81Gqix5t91M-24">
          <mxGeometry relative="1" as="geometry" />
        </mxCell>
        <mxCell id="HBnFO21-F81Gqix5t91M-53" style="edgeStyle=orthogonalEdgeStyle;rounded=0;orthogonalLoop=1;jettySize=auto;html=1;exitX=0.5;exitY=1;exitDx=0;exitDy=0;entryX=0.5;entryY=0;entryDx=0;entryDy=0;" edge="1" parent="1" source="HBnFO21-F81Gqix5t91M-8" target="HBnFO21-F81Gqix5t91M-23">
          <mxGeometry relative="1" as="geometry" />
        </mxCell>
        <mxCell id="HBnFO21-F81Gqix5t91M-8" value="h5" style="rounded=0;whiteSpace=wrap;html=1;" vertex="1" parent="1">
          <mxGeometry x="870" y="360" width="120" height="60" as="geometry" />
        </mxCell>
        <mxCell id="HBnFO21-F81Gqix5t91M-49" style="edgeStyle=orthogonalEdgeStyle;rounded=0;orthogonalLoop=1;jettySize=auto;html=1;exitX=0;exitY=0.5;exitDx=0;exitDy=0;entryX=1;entryY=0.5;entryDx=0;entryDy=0;" edge="1" parent="1" source="HBnFO21-F81Gqix5t91M-48" target="HBnFO21-F81Gqix5t91M-1">
          <mxGeometry relative="1" as="geometry" />
        </mxCell>
        <mxCell id="HBnFO21-F81Gqix5t91M-48" value="公共API" style="rounded=0;whiteSpace=wrap;html=1;" vertex="1" parent="1">
          <mxGeometry x="584" y="240" width="120" height="60" as="geometry" />
        </mxCell>
        <mxCell id="HBnFO21-F81Gqix5t91M-54" value="Nuxt门户" style="rounded=0;whiteSpace=wrap;html=1;" vertex="1" parent="1">
          <mxGeometry x="-400" y="170" width="120" height="60" as="geometry" />
        </mxCell>
        <mxCell id="HBnFO21-F81Gqix5t91M-55" value="Uniapp门户" style="rounded=0;whiteSpace=wrap;html=1;" vertex="1" parent="1">
          <mxGeometry x="-270" y="170" width="120" height="60" as="geometry" />
        </mxCell>
        <mxCell id="HBnFO21-F81Gqix5t91M-56" value="原生APP" style="rounded=0;whiteSpace=wrap;html=1;" vertex="1" parent="1">
          <mxGeometry x="-400" y="240" width="120" height="60" as="geometry" />
        </mxCell>
        <mxCell id="HBnFO21-F81Gqix5t91M-57" value="Electron应用" style="rounded=0;whiteSpace=wrap;html=1;" vertex="1" parent="1">
          <mxGeometry x="-270" y="240" width="120" height="60" as="geometry" />
        </mxCell>
        <mxCell id="HBnFO21-F81Gqix5t91M-60" value="" style="group;fillColor=#d5e8d4;strokeColor=#82b366;" vertex="1" connectable="0" parent="1">
          <mxGeometry x="960" y="460" width="400" height="200" as="geometry" />
        </mxCell>
        <mxCell id="HBnFO21-F81Gqix5t91M-23" value="" style="rounded=0;whiteSpace=wrap;html=1;container=0;fillColor=#d5e8d4;strokeColor=#82b366;" vertex="1" parent="HBnFO21-F81Gqix5t91M-60">
          <mxGeometry width="400" height="200" as="geometry" />
        </mxCell>
        <mxCell id="HBnFO21-F81Gqix5t91M-25" value="用户模块" style="rounded=0;whiteSpace=wrap;html=1;container=0;" vertex="1" parent="HBnFO21-F81Gqix5t91M-60">
          <mxGeometry x="10" y="50" width="120" height="60" as="geometry" />
        </mxCell>
        <mxCell id="HBnFO21-F81Gqix5t91M-30" value="监控模块" style="rounded=0;whiteSpace=wrap;html=1;container=0;" vertex="1" parent="HBnFO21-F81Gqix5t91M-60">
          <mxGeometry x="140" y="50" width="120" height="60" as="geometry" />
        </mxCell>
        <mxCell id="HBnFO21-F81Gqix5t91M-31" value="日志模块" style="rounded=0;whiteSpace=wrap;html=1;container=0;" vertex="1" parent="HBnFO21-F81Gqix5t91M-60">
          <mxGeometry x="272" y="50" width="120" height="60" as="geometry" />
        </mxCell>
        <mxCell id="HBnFO21-F81Gqix5t91M-33" value="演示模块" style="rounded=0;whiteSpace=wrap;html=1;container=0;" vertex="1" parent="HBnFO21-F81Gqix5t91M-60">
          <mxGeometry x="10" y="120" width="120" height="60" as="geometry" />
        </mxCell>
        <mxCell id="HBnFO21-F81Gqix5t91M-35" value="后台" style="text;html=1;strokeColor=none;fillColor=none;align=center;verticalAlign=middle;whiteSpace=wrap;rounded=0;container=0;" vertex="1" parent="HBnFO21-F81Gqix5t91M-60">
          <mxGeometry x="170" y="10" width="60" height="30" as="geometry" />
        </mxCell>
        <mxCell id="HBnFO21-F81Gqix5t91M-36" value="其他模块" style="rounded=0;whiteSpace=wrap;html=1;container=0;" vertex="1" parent="HBnFO21-F81Gqix5t91M-60">
          <mxGeometry x="140" y="120" width="120" height="60" as="geometry" />
        </mxCell>
        <mxCell id="HBnFO21-F81Gqix5t91M-61" value="" style="group;fillColor=#f8cecc;strokeColor=#b85450;" vertex="1" connectable="0" parent="1">
          <mxGeometry x="520" y="460" width="400" height="200" as="geometry" />
        </mxCell>
        <mxCell id="HBnFO21-F81Gqix5t91M-24" value="" style="rounded=0;whiteSpace=wrap;html=1;container=0;fillColor=#f8cecc;strokeColor=#b85450;" vertex="1" parent="HBnFO21-F81Gqix5t91M-61">
          <mxGeometry width="400" height="200" as="geometry" />
        </mxCell>
        <mxCell id="HBnFO21-F81Gqix5t91M-26" value="博客模块" style="rounded=0;whiteSpace=wrap;html=1;container=0;" vertex="1" parent="HBnFO21-F81Gqix5t91M-61">
          <mxGeometry x="140" y="50" width="120" height="60" as="geometry" />
        </mxCell>
        <mxCell id="HBnFO21-F81Gqix5t91M-27" value="在线文档模块" style="rounded=0;whiteSpace=wrap;html=1;container=0;" vertex="1" parent="HBnFO21-F81Gqix5t91M-61">
          <mxGeometry x="270" y="50" width="120" height="60" as="geometry" />
        </mxCell>
        <mxCell id="HBnFO21-F81Gqix5t91M-28" value="首页模块" style="rounded=0;whiteSpace=wrap;html=1;container=0;" vertex="1" parent="HBnFO21-F81Gqix5t91M-61">
          <mxGeometry x="10" y="50" width="120" height="60" as="geometry" />
        </mxCell>
        <mxCell id="HBnFO21-F81Gqix5t91M-29" value="其他模块" style="rounded=0;whiteSpace=wrap;html=1;container=0;" vertex="1" parent="HBnFO21-F81Gqix5t91M-61">
          <mxGeometry x="140" y="120" width="120" height="60" as="geometry" />
        </mxCell>
        <mxCell id="HBnFO21-F81Gqix5t91M-32" value="个人简历模块" style="rounded=0;whiteSpace=wrap;html=1;container=0;" vertex="1" parent="HBnFO21-F81Gqix5t91M-61">
          <mxGeometry x="10" y="120" width="120" height="60" as="geometry" />
        </mxCell>
        <mxCell id="HBnFO21-F81Gqix5t91M-34" value="前台" style="text;html=1;strokeColor=none;fillColor=none;align=center;verticalAlign=middle;whiteSpace=wrap;rounded=0;container=0;" vertex="1" parent="HBnFO21-F81Gqix5t91M-61">
          <mxGeometry x="165" y="10" width="60" height="30" as="geometry" />
        </mxCell>
        <mxCell id="HBnFO21-F81Gqix5t91M-62" value="" style="group;fillColor=#fff2cc;strokeColor=#d6b656;" vertex="1" connectable="0" parent="1">
          <mxGeometry x="100" y="460" width="400" height="200" as="geometry" />
        </mxCell>
        <mxCell id="HBnFO21-F81Gqix5t91M-18" value="" style="rounded=0;whiteSpace=wrap;html=1;container=0;fillColor=#fff2cc;strokeColor=#d6b656;" vertex="1" parent="HBnFO21-F81Gqix5t91M-62">
          <mxGeometry width="400" height="200" as="geometry" />
        </mxCell>
        <mxCell id="HBnFO21-F81Gqix5t91M-9" value="用户模块" style="rounded=0;whiteSpace=wrap;html=1;container=0;" vertex="1" parent="HBnFO21-F81Gqix5t91M-62">
          <mxGeometry x="10" y="50" width="120" height="60" as="geometry" />
        </mxCell>
        <mxCell id="HBnFO21-F81Gqix5t91M-14" value="监控模块" style="rounded=0;whiteSpace=wrap;html=1;container=0;" vertex="1" parent="HBnFO21-F81Gqix5t91M-62">
          <mxGeometry x="140" y="50" width="120" height="60" as="geometry" />
        </mxCell>
        <mxCell id="HBnFO21-F81Gqix5t91M-15" value="日志模块" style="rounded=0;whiteSpace=wrap;html=1;container=0;" vertex="1" parent="HBnFO21-F81Gqix5t91M-62">
          <mxGeometry x="272" y="50" width="120" height="60" as="geometry" />
        </mxCell>
        <mxCell id="HBnFO21-F81Gqix5t91M-19" value="演示模块" style="rounded=0;whiteSpace=wrap;html=1;container=0;" vertex="1" parent="HBnFO21-F81Gqix5t91M-62">
          <mxGeometry x="10" y="120" width="120" height="60" as="geometry" />
        </mxCell>
        <mxCell id="HBnFO21-F81Gqix5t91M-21" value="后台" style="text;html=1;strokeColor=none;fillColor=none;align=center;verticalAlign=middle;whiteSpace=wrap;rounded=0;container=0;" vertex="1" parent="HBnFO21-F81Gqix5t91M-62">
          <mxGeometry x="170" y="10" width="60" height="30" as="geometry" />
        </mxCell>
        <mxCell id="HBnFO21-F81Gqix5t91M-22" value="其他模块" style="rounded=0;whiteSpace=wrap;html=1;container=0;" vertex="1" parent="HBnFO21-F81Gqix5t91M-62">
          <mxGeometry x="140" y="120" width="120" height="60" as="geometry" />
        </mxCell>
        <mxCell id="HBnFO21-F81Gqix5t91M-58" value="" style="group;fillColor=#ffe6cc;strokeColor=#d79b00;" vertex="1" connectable="0" parent="1">
          <mxGeometry x="-340" y="460" width="400" height="200" as="geometry" />
        </mxCell>
        <mxCell id="HBnFO21-F81Gqix5t91M-17" value="" style="rounded=0;whiteSpace=wrap;html=1;fillColor=#ffe6cc;strokeColor=#d79b00;" vertex="1" parent="HBnFO21-F81Gqix5t91M-58">
          <mxGeometry width="400" height="200" as="geometry" />
        </mxCell>
        <mxCell id="HBnFO21-F81Gqix5t91M-10" value="博客模块" style="rounded=0;whiteSpace=wrap;html=1;" vertex="1" parent="HBnFO21-F81Gqix5t91M-58">
          <mxGeometry x="140" y="50" width="120" height="60" as="geometry" />
        </mxCell>
        <mxCell id="HBnFO21-F81Gqix5t91M-11" value="在线文档模块" style="rounded=0;whiteSpace=wrap;html=1;" vertex="1" parent="HBnFO21-F81Gqix5t91M-58">
          <mxGeometry x="270" y="50" width="120" height="60" as="geometry" />
        </mxCell>
        <mxCell id="HBnFO21-F81Gqix5t91M-12" value="首页模块" style="rounded=0;whiteSpace=wrap;html=1;" vertex="1" parent="HBnFO21-F81Gqix5t91M-58">
          <mxGeometry x="10" y="50" width="120" height="60" as="geometry" />
        </mxCell>
        <mxCell id="HBnFO21-F81Gqix5t91M-13" value="其他模块" style="rounded=0;whiteSpace=wrap;html=1;" vertex="1" parent="HBnFO21-F81Gqix5t91M-58">
          <mxGeometry x="140" y="120" width="120" height="60" as="geometry" />
        </mxCell>
        <mxCell id="HBnFO21-F81Gqix5t91M-16" value="个人简历模块" style="rounded=0;whiteSpace=wrap;html=1;" vertex="1" parent="HBnFO21-F81Gqix5t91M-58">
          <mxGeometry x="10" y="120" width="120" height="60" as="geometry" />
        </mxCell>
        <mxCell id="HBnFO21-F81Gqix5t91M-20" value="前台" style="text;html=1;strokeColor=none;fillColor=none;align=center;verticalAlign=middle;whiteSpace=wrap;rounded=0;" vertex="1" parent="HBnFO21-F81Gqix5t91M-58">
          <mxGeometry x="165" y="10" width="60" height="30" as="geometry" />
        </mxCell>
        <mxCell id="HBnFO21-F81Gqix5t91M-110" style="edgeStyle=orthogonalEdgeStyle;rounded=0;orthogonalLoop=1;jettySize=auto;html=1;exitX=0.5;exitY=1;exitDx=0;exitDy=0;entryX=0.5;entryY=0;entryDx=0;entryDy=0;" edge="1" parent="1" source="HBnFO21-F81Gqix5t91M-78" target="HBnFO21-F81Gqix5t91M-88">
          <mxGeometry relative="1" as="geometry" />
        </mxCell>
        <mxCell id="HBnFO21-F81Gqix5t91M-111" style="edgeStyle=orthogonalEdgeStyle;rounded=0;orthogonalLoop=1;jettySize=auto;html=1;exitX=0.5;exitY=1;exitDx=0;exitDy=0;entryX=0.5;entryY=0;entryDx=0;entryDy=0;" edge="1" parent="1" source="HBnFO21-F81Gqix5t91M-78" target="HBnFO21-F81Gqix5t91M-87">
          <mxGeometry relative="1" as="geometry" />
        </mxCell>
        <mxCell id="HBnFO21-F81Gqix5t91M-112" style="edgeStyle=orthogonalEdgeStyle;rounded=0;orthogonalLoop=1;jettySize=auto;html=1;exitX=0.5;exitY=1;exitDx=0;exitDy=0;" edge="1" parent="1" source="HBnFO21-F81Gqix5t91M-78" target="HBnFO21-F81Gqix5t91M-86">
          <mxGeometry relative="1" as="geometry" />
        </mxCell>
        <mxCell id="HBnFO21-F81Gqix5t91M-113" style="edgeStyle=orthogonalEdgeStyle;rounded=0;orthogonalLoop=1;jettySize=auto;html=1;exitX=0.5;exitY=1;exitDx=0;exitDy=0;" edge="1" parent="1" source="HBnFO21-F81Gqix5t91M-78" target="HBnFO21-F81Gqix5t91M-90">
          <mxGeometry relative="1" as="geometry" />
        </mxCell>
        <mxCell id="HBnFO21-F81Gqix5t91M-120" style="edgeStyle=orthogonalEdgeStyle;rounded=0;orthogonalLoop=1;jettySize=auto;html=1;exitX=1;exitY=0.5;exitDx=0;exitDy=0;entryX=0;entryY=0.5;entryDx=0;entryDy=0;" edge="1" parent="1" source="HBnFO21-F81Gqix5t91M-78" target="HBnFO21-F81Gqix5t91M-119">
          <mxGeometry relative="1" as="geometry" />
        </mxCell>
        <mxCell id="HBnFO21-F81Gqix5t91M-197" style="edgeStyle=orthogonalEdgeStyle;rounded=0;orthogonalLoop=1;jettySize=auto;html=1;exitX=0.5;exitY=1;exitDx=0;exitDy=0;" edge="1" parent="1" source="HBnFO21-F81Gqix5t91M-78" target="HBnFO21-F81Gqix5t91M-194">
          <mxGeometry relative="1" as="geometry" />
        </mxCell>
        <mxCell id="HBnFO21-F81Gqix5t91M-198" style="edgeStyle=orthogonalEdgeStyle;rounded=0;orthogonalLoop=1;jettySize=auto;html=1;exitX=0.5;exitY=1;exitDx=0;exitDy=0;entryX=0.5;entryY=0;entryDx=0;entryDy=0;" edge="1" parent="1" source="HBnFO21-F81Gqix5t91M-78" target="HBnFO21-F81Gqix5t91M-195">
          <mxGeometry relative="1" as="geometry" />
        </mxCell>
        <mxCell id="HBnFO21-F81Gqix5t91M-199" style="edgeStyle=orthogonalEdgeStyle;rounded=0;orthogonalLoop=1;jettySize=auto;html=1;exitX=0.5;exitY=1;exitDx=0;exitDy=0;entryX=0.5;entryY=0;entryDx=0;entryDy=0;" edge="1" parent="1" source="HBnFO21-F81Gqix5t91M-78" target="HBnFO21-F81Gqix5t91M-196">
          <mxGeometry relative="1" as="geometry" />
        </mxCell>
        <mxCell id="HBnFO21-F81Gqix5t91M-78" value="" style="rounded=0;whiteSpace=wrap;html=1;fillColor=#fff2cc;strokeColor=#d6b656;" vertex="1" parent="1">
          <mxGeometry x="2090" y="590" width="1030" height="260" as="geometry" />
        </mxCell>
        <mxCell id="HBnFO21-F81Gqix5t91M-86" value="文件服务" style="rounded=0;whiteSpace=wrap;html=1;" vertex="1" parent="1">
          <mxGeometry x="2090" y="950" width="120" height="60" as="geometry" />
        </mxCell>
        <mxCell id="HBnFO21-F81Gqix5t91M-87" value="搜索服务" style="rounded=0;whiteSpace=wrap;html=1;" vertex="1" parent="1">
          <mxGeometry x="2240" y="950" width="120" height="60" as="geometry" />
        </mxCell>
        <mxCell id="HBnFO21-F81Gqix5t91M-88" value="爬虫服务" style="rounded=0;whiteSpace=wrap;html=1;" vertex="1" parent="1">
          <mxGeometry x="2390" y="950" width="120" height="60" as="geometry" />
        </mxCell>
        <mxCell id="HBnFO21-F81Gqix5t91M-124" style="edgeStyle=orthogonalEdgeStyle;rounded=0;orthogonalLoop=1;jettySize=auto;html=1;exitX=0.5;exitY=1;exitDx=0;exitDy=0;entryX=0.5;entryY=1;entryDx=0;entryDy=0;" edge="1" parent="1" source="HBnFO21-F81Gqix5t91M-89" target="HBnFO21-F81Gqix5t91M-87">
          <mxGeometry relative="1" as="geometry" />
        </mxCell>
        <mxCell id="HBnFO21-F81Gqix5t91M-125" style="edgeStyle=orthogonalEdgeStyle;rounded=0;orthogonalLoop=1;jettySize=auto;html=1;exitX=0.5;exitY=1;exitDx=0;exitDy=0;entryX=0.5;entryY=1;entryDx=0;entryDy=0;" edge="1" parent="1" source="HBnFO21-F81Gqix5t91M-89" target="HBnFO21-F81Gqix5t91M-90">
          <mxGeometry relative="1" as="geometry" />
        </mxCell>
        <mxCell id="HBnFO21-F81Gqix5t91M-200" style="edgeStyle=orthogonalEdgeStyle;rounded=0;orthogonalLoop=1;jettySize=auto;html=1;exitX=0.5;exitY=1;exitDx=0;exitDy=0;entryX=0.5;entryY=1;entryDx=0;entryDy=0;" edge="1" parent="1" source="HBnFO21-F81Gqix5t91M-89" target="HBnFO21-F81Gqix5t91M-194">
          <mxGeometry relative="1" as="geometry" />
        </mxCell>
        <mxCell id="HBnFO21-F81Gqix5t91M-201" style="edgeStyle=orthogonalEdgeStyle;rounded=0;orthogonalLoop=1;jettySize=auto;html=1;exitX=0.5;exitY=1;exitDx=0;exitDy=0;entryX=0.5;entryY=1;entryDx=0;entryDy=0;" edge="1" parent="1" source="HBnFO21-F81Gqix5t91M-89" target="HBnFO21-F81Gqix5t91M-195">
          <mxGeometry relative="1" as="geometry" />
        </mxCell>
        <mxCell id="HBnFO21-F81Gqix5t91M-202" style="edgeStyle=orthogonalEdgeStyle;rounded=0;orthogonalLoop=1;jettySize=auto;html=1;exitX=0.5;exitY=1;exitDx=0;exitDy=0;entryX=0.5;entryY=1;entryDx=0;entryDy=0;" edge="1" parent="1" source="HBnFO21-F81Gqix5t91M-89" target="HBnFO21-F81Gqix5t91M-196">
          <mxGeometry relative="1" as="geometry" />
        </mxCell>
        <mxCell id="HBnFO21-F81Gqix5t91M-89" value="消息服务" style="rounded=0;whiteSpace=wrap;html=1;" vertex="1" parent="1">
          <mxGeometry x="3200" y="950" width="120" height="60" as="geometry" />
        </mxCell>
        <mxCell id="HBnFO21-F81Gqix5t91M-90" value="其他服务1" style="rounded=0;whiteSpace=wrap;html=1;" vertex="1" parent="1">
          <mxGeometry x="2545" y="950" width="120" height="60" as="geometry" />
        </mxCell>
        <mxCell id="HBnFO21-F81Gqix5t91M-91" value="应用服务" style="text;html=1;strokeColor=none;fillColor=none;align=center;verticalAlign=middle;whiteSpace=wrap;rounded=0;" vertex="1" parent="1">
          <mxGeometry x="2575" y="590" width="60" height="30" as="geometry" />
        </mxCell>
        <mxCell id="HBnFO21-F81Gqix5t91M-93" value="" style="group" vertex="1" connectable="0" parent="1">
          <mxGeometry x="2110" y="640" width="270" height="190" as="geometry" />
        </mxCell>
        <mxCell id="HBnFO21-F81Gqix5t91M-84" value="" style="rounded=0;whiteSpace=wrap;html=1;" vertex="1" parent="HBnFO21-F81Gqix5t91M-93">
          <mxGeometry width="270" height="190" as="geometry" />
        </mxCell>
        <mxCell id="HBnFO21-F81Gqix5t91M-79" value="用户管理模块服务" style="rounded=0;whiteSpace=wrap;html=1;" vertex="1" parent="HBnFO21-F81Gqix5t91M-93">
          <mxGeometry x="10" y="40" width="120" height="60" as="geometry" />
        </mxCell>
        <mxCell id="HBnFO21-F81Gqix5t91M-80" value="其他模块服务1" style="rounded=0;whiteSpace=wrap;html=1;" vertex="1" parent="HBnFO21-F81Gqix5t91M-93">
          <mxGeometry x="140" y="40" width="120" height="60" as="geometry" />
        </mxCell>
        <mxCell id="HBnFO21-F81Gqix5t91M-81" value="其他模块服务2" style="rounded=0;whiteSpace=wrap;html=1;" vertex="1" parent="HBnFO21-F81Gqix5t91M-93">
          <mxGeometry x="10" y="110" width="120" height="60" as="geometry" />
        </mxCell>
        <mxCell id="HBnFO21-F81Gqix5t91M-82" value="其他模块服务3" style="rounded=0;whiteSpace=wrap;html=1;" vertex="1" parent="HBnFO21-F81Gqix5t91M-93">
          <mxGeometry x="140" y="110" width="120" height="60" as="geometry" />
        </mxCell>
        <mxCell id="HBnFO21-F81Gqix5t91M-83" value="Java服务器应用" style="text;html=1;strokeColor=none;fillColor=none;align=center;verticalAlign=middle;whiteSpace=wrap;rounded=0;" vertex="1" parent="HBnFO21-F81Gqix5t91M-93">
          <mxGeometry x="90" width="100" height="30" as="geometry" />
        </mxCell>
        <mxCell id="HBnFO21-F81Gqix5t91M-94" value="" style="group" vertex="1" connectable="0" parent="1">
          <mxGeometry x="2470" y="640" width="270" height="190" as="geometry" />
        </mxCell>
        <mxCell id="HBnFO21-F81Gqix5t91M-95" value="" style="rounded=0;whiteSpace=wrap;html=1;" vertex="1" parent="HBnFO21-F81Gqix5t91M-94">
          <mxGeometry width="270" height="190" as="geometry" />
        </mxCell>
        <mxCell id="HBnFO21-F81Gqix5t91M-96" value="用户管理模块服务" style="rounded=0;whiteSpace=wrap;html=1;" vertex="1" parent="HBnFO21-F81Gqix5t91M-94">
          <mxGeometry x="10" y="40" width="120" height="60" as="geometry" />
        </mxCell>
        <mxCell id="HBnFO21-F81Gqix5t91M-97" value="其他模块服务器1" style="rounded=0;whiteSpace=wrap;html=1;" vertex="1" parent="HBnFO21-F81Gqix5t91M-94">
          <mxGeometry x="140" y="40" width="120" height="60" as="geometry" />
        </mxCell>
        <mxCell id="HBnFO21-F81Gqix5t91M-98" value="其他模块服务器2" style="rounded=0;whiteSpace=wrap;html=1;" vertex="1" parent="HBnFO21-F81Gqix5t91M-94">
          <mxGeometry x="10" y="110" width="120" height="60" as="geometry" />
        </mxCell>
        <mxCell id="HBnFO21-F81Gqix5t91M-99" value="其他模块服务器3" style="rounded=0;whiteSpace=wrap;html=1;" vertex="1" parent="HBnFO21-F81Gqix5t91M-94">
          <mxGeometry x="140" y="110" width="120" height="60" as="geometry" />
        </mxCell>
        <mxCell id="HBnFO21-F81Gqix5t91M-100" value="Python服务器应用" style="text;html=1;strokeColor=none;fillColor=none;align=center;verticalAlign=middle;whiteSpace=wrap;rounded=0;" vertex="1" parent="HBnFO21-F81Gqix5t91M-94">
          <mxGeometry x="90" width="100" height="30" as="geometry" />
        </mxCell>
        <mxCell id="HBnFO21-F81Gqix5t91M-101" value="" style="group" vertex="1" connectable="0" parent="1">
          <mxGeometry x="2830" y="640" width="270" height="190" as="geometry" />
        </mxCell>
        <mxCell id="HBnFO21-F81Gqix5t91M-102" value="" style="rounded=0;whiteSpace=wrap;html=1;" vertex="1" parent="HBnFO21-F81Gqix5t91M-101">
          <mxGeometry width="270" height="190" as="geometry" />
        </mxCell>
        <mxCell id="HBnFO21-F81Gqix5t91M-103" value="用户管理模块服务" style="rounded=0;whiteSpace=wrap;html=1;" vertex="1" parent="HBnFO21-F81Gqix5t91M-101">
          <mxGeometry x="10" y="40" width="120" height="60" as="geometry" />
        </mxCell>
        <mxCell id="HBnFO21-F81Gqix5t91M-104" value="其他模块服务器1" style="rounded=0;whiteSpace=wrap;html=1;" vertex="1" parent="HBnFO21-F81Gqix5t91M-101">
          <mxGeometry x="140" y="40" width="120" height="60" as="geometry" />
        </mxCell>
        <mxCell id="HBnFO21-F81Gqix5t91M-105" value="其他模块服务器2" style="rounded=0;whiteSpace=wrap;html=1;" vertex="1" parent="HBnFO21-F81Gqix5t91M-101">
          <mxGeometry x="10" y="110" width="120" height="60" as="geometry" />
        </mxCell>
        <mxCell id="HBnFO21-F81Gqix5t91M-106" value="其他模块服务器3" style="rounded=0;whiteSpace=wrap;html=1;" vertex="1" parent="HBnFO21-F81Gqix5t91M-101">
          <mxGeometry x="140" y="110" width="120" height="60" as="geometry" />
        </mxCell>
        <mxCell id="HBnFO21-F81Gqix5t91M-107" value="Node服务器应用" style="text;html=1;strokeColor=none;fillColor=none;align=center;verticalAlign=middle;whiteSpace=wrap;rounded=0;" vertex="1" parent="HBnFO21-F81Gqix5t91M-101">
          <mxGeometry x="90" width="100" height="30" as="geometry" />
        </mxCell>
        <mxCell id="HBnFO21-F81Gqix5t91M-116" value="Fegin调用" style="text;html=1;align=center;verticalAlign=middle;resizable=0;points=[];autosize=1;strokeColor=none;fillColor=none;" vertex="1" parent="1">
          <mxGeometry x="2595" y="865" width="80" height="30" as="geometry" />
        </mxCell>
        <mxCell id="HBnFO21-F81Gqix5t91M-122" style="edgeStyle=orthogonalEdgeStyle;rounded=0;orthogonalLoop=1;jettySize=auto;html=1;exitX=0.5;exitY=1;exitDx=0;exitDy=0;entryX=0.5;entryY=0;entryDx=0;entryDy=0;" edge="1" parent="1" source="HBnFO21-F81Gqix5t91M-119" target="HBnFO21-F81Gqix5t91M-89">
          <mxGeometry relative="1" as="geometry" />
        </mxCell>
        <mxCell id="HBnFO21-F81Gqix5t91M-119" value="RabbitMQ" style="rounded=0;whiteSpace=wrap;html=1;" vertex="1" parent="1">
          <mxGeometry x="3200" y="690" width="120" height="60" as="geometry" />
        </mxCell>
        <mxCell id="HBnFO21-F81Gqix5t91M-121" value="异步通信" style="text;html=1;align=center;verticalAlign=middle;resizable=0;points=[];autosize=1;strokeColor=none;fillColor=none;" vertex="1" parent="1">
          <mxGeometry x="3130" y="690" width="70" height="30" as="geometry" />
        </mxCell>
        <mxCell id="HBnFO21-F81Gqix5t91M-123" value="异步通信" style="text;html=1;align=center;verticalAlign=middle;resizable=0;points=[];autosize=1;strokeColor=none;fillColor=none;" vertex="1" parent="1">
          <mxGeometry x="3260" y="835" width="70" height="30" as="geometry" />
        </mxCell>
        <mxCell id="HBnFO21-F81Gqix5t91M-126" value="Fegin调用" style="text;html=1;align=center;verticalAlign=middle;resizable=0;points=[];autosize=1;strokeColor=none;fillColor=none;" vertex="1" parent="1">
          <mxGeometry x="3030" y="1030" width="80" height="30" as="geometry" />
        </mxCell>
        <mxCell id="HBnFO21-F81Gqix5t91M-219" style="edgeStyle=orthogonalEdgeStyle;rounded=0;orthogonalLoop=1;jettySize=auto;html=1;exitX=1;exitY=0.5;exitDx=0;exitDy=0;entryX=0;entryY=0.5;entryDx=0;entryDy=0;" edge="1" parent="1" source="HBnFO21-F81Gqix5t91M-67" target="HBnFO21-F81Gqix5t91M-166">
          <mxGeometry relative="1" as="geometry" />
        </mxCell>
        <mxCell id="HBnFO21-F81Gqix5t91M-67" value="" style="rounded=0;whiteSpace=wrap;html=1;container=0;fillColor=#1ba1e2;fontColor=#ffffff;strokeColor=#006EAF;" vertex="1" parent="1">
          <mxGeometry x="1580" y="340" width="137" height="750" as="geometry" />
        </mxCell>
        <mxCell id="HBnFO21-F81Gqix5t91M-63" value="PC-WEB" style="rounded=0;whiteSpace=wrap;html=1;container=0;" vertex="1" parent="1">
          <mxGeometry x="1590" y="435" width="120" height="60" as="geometry" />
        </mxCell>
        <mxCell id="HBnFO21-F81Gqix5t91M-64" value="H5-WEB" style="rounded=0;whiteSpace=wrap;html=1;container=0;" vertex="1" parent="1">
          <mxGeometry x="1588.5" y="595" width="120" height="60" as="geometry" />
        </mxCell>
        <mxCell id="HBnFO21-F81Gqix5t91M-65" value="原生APP" style="rounded=0;whiteSpace=wrap;html=1;container=0;" vertex="1" parent="1">
          <mxGeometry x="1588.5" y="775" width="120" height="60" as="geometry" />
        </mxCell>
        <mxCell id="HBnFO21-F81Gqix5t91M-66" value="Electron应用" style="rounded=0;whiteSpace=wrap;html=1;container=0;" vertex="1" parent="1">
          <mxGeometry x="1590" y="950" width="120" height="60" as="geometry" />
        </mxCell>
        <mxCell id="HBnFO21-F81Gqix5t91M-68" value="门户" style="text;html=1;strokeColor=none;fillColor=none;align=center;verticalAlign=middle;whiteSpace=wrap;rounded=0;container=0;" vertex="1" parent="1">
          <mxGeometry x="1620" y="360" width="60" height="30" as="geometry" />
        </mxCell>
        <mxCell id="HBnFO21-F81Gqix5t91M-149" style="edgeStyle=orthogonalEdgeStyle;rounded=0;orthogonalLoop=1;jettySize=auto;html=1;exitX=1;exitY=0.5;exitDx=0;exitDy=0;entryX=0;entryY=0.5;entryDx=0;entryDy=0;" edge="1" parent="1" source="HBnFO21-F81Gqix5t91M-75" target="HBnFO21-F81Gqix5t91M-130">
          <mxGeometry relative="1" as="geometry" />
        </mxCell>
        <mxCell id="HBnFO21-F81Gqix5t91M-193" style="edgeStyle=orthogonalEdgeStyle;rounded=0;orthogonalLoop=1;jettySize=auto;html=1;exitX=0.5;exitY=0;exitDx=0;exitDy=0;entryX=0.25;entryY=1;entryDx=0;entryDy=0;" edge="1" parent="1" source="HBnFO21-F81Gqix5t91M-75" target="HBnFO21-F81Gqix5t91M-139">
          <mxGeometry relative="1" as="geometry" />
        </mxCell>
        <mxCell id="HBnFO21-F81Gqix5t91M-75" value="" style="rounded=0;whiteSpace=wrap;html=1;container=0;fillColor=#f5f5f5;fontColor=#333333;strokeColor=#666666;" vertex="1" parent="1">
          <mxGeometry x="1790" y="645" width="140" height="330" as="geometry" />
        </mxCell>
        <mxCell id="HBnFO21-F81Gqix5t91M-71" value="Nginx负载均衡1" style="rounded=0;whiteSpace=wrap;html=1;container=0;" vertex="1" parent="1">
          <mxGeometry x="1800" y="695" width="120" height="60" as="geometry" />
        </mxCell>
        <mxCell id="HBnFO21-F81Gqix5t91M-72" value="Nginx负载均衡2" style="rounded=0;whiteSpace=wrap;html=1;container=0;" vertex="1" parent="1">
          <mxGeometry x="1800" y="765" width="120" height="60" as="geometry" />
        </mxCell>
        <mxCell id="HBnFO21-F81Gqix5t91M-73" value="gateway网关" style="rounded=0;whiteSpace=wrap;html=1;container=0;" vertex="1" parent="1">
          <mxGeometry x="1800" y="835" width="120" height="60" as="geometry" />
        </mxCell>
        <mxCell id="HBnFO21-F81Gqix5t91M-74" value="gateway网关" style="rounded=0;whiteSpace=wrap;html=1;container=0;" vertex="1" parent="1">
          <mxGeometry x="1800" y="905" width="120" height="60" as="geometry" />
        </mxCell>
        <mxCell id="HBnFO21-F81Gqix5t91M-76" value="服务入口" style="text;html=1;strokeColor=none;fillColor=none;align=center;verticalAlign=middle;whiteSpace=wrap;rounded=0;container=0;" vertex="1" parent="1">
          <mxGeometry x="1830" y="655" width="60" height="30" as="geometry" />
        </mxCell>
        <mxCell id="HBnFO21-F81Gqix5t91M-134" value="" style="shape=flexArrow;endArrow=classic;startArrow=classic;html=1;rounded=0;entryX=0;entryY=0.5;entryDx=0;entryDy=0;exitX=1;exitY=0.5;exitDx=0;exitDy=0;" edge="1" parent="1" source="HBnFO21-F81Gqix5t91M-84" target="HBnFO21-F81Gqix5t91M-95">
          <mxGeometry width="100" height="100" relative="1" as="geometry">
            <mxPoint x="2460" y="910" as="sourcePoint" />
            <mxPoint x="2560" y="810" as="targetPoint" />
          </mxGeometry>
        </mxCell>
        <mxCell id="HBnFO21-F81Gqix5t91M-135" value="" style="shape=flexArrow;endArrow=classic;startArrow=classic;html=1;rounded=0;entryX=1;entryY=0.5;entryDx=0;entryDy=0;exitX=0;exitY=0.5;exitDx=0;exitDy=0;" edge="1" parent="1" source="HBnFO21-F81Gqix5t91M-102" target="HBnFO21-F81Gqix5t91M-95">
          <mxGeometry width="100" height="100" relative="1" as="geometry">
            <mxPoint x="2390" y="745" as="sourcePoint" />
            <mxPoint x="2480" y="745" as="targetPoint" />
          </mxGeometry>
        </mxCell>
        <mxCell id="HBnFO21-F81Gqix5t91M-136" value="通信方案待定" style="text;html=1;align=center;verticalAlign=middle;resizable=0;points=[];autosize=1;strokeColor=none;fillColor=none;" vertex="1" parent="1">
          <mxGeometry x="2380" y="685" width="100" height="30" as="geometry" />
        </mxCell>
        <mxCell id="HBnFO21-F81Gqix5t91M-137" value="通信方案待定" style="text;html=1;align=center;verticalAlign=middle;resizable=0;points=[];autosize=1;strokeColor=none;fillColor=none;" vertex="1" parent="1">
          <mxGeometry x="2740" y="690" width="100" height="30" as="geometry" />
        </mxCell>
        <mxCell id="HBnFO21-F81Gqix5t91M-143" value="" style="group;fillColor=#dae8fc;strokeColor=#6c8ebf;" vertex="1" connectable="0" parent="1">
          <mxGeometry x="1792" y="370" width="270" height="120" as="geometry" />
        </mxCell>
        <mxCell id="HBnFO21-F81Gqix5t91M-139" value="" style="rounded=0;whiteSpace=wrap;html=1;strokeWidth=1;fillColor=#dae8fc;strokeColor=#6c8ebf;" vertex="1" parent="HBnFO21-F81Gqix5t91M-143">
          <mxGeometry width="270" height="120" as="geometry" />
        </mxCell>
        <mxCell id="HBnFO21-F81Gqix5t91M-140" value="Nacos1" style="rounded=0;whiteSpace=wrap;html=1;strokeWidth=1;fillColor=default;" vertex="1" parent="HBnFO21-F81Gqix5t91M-143">
          <mxGeometry x="10" y="50" width="120" height="60" as="geometry" />
        </mxCell>
        <mxCell id="HBnFO21-F81Gqix5t91M-141" value="Nacos2" style="rounded=0;whiteSpace=wrap;html=1;strokeWidth=1;fillColor=default;" vertex="1" parent="HBnFO21-F81Gqix5t91M-143">
          <mxGeometry x="140" y="50" width="120" height="60" as="geometry" />
        </mxCell>
        <mxCell id="HBnFO21-F81Gqix5t91M-218" value="" style="edgeStyle=orthogonalEdgeStyle;rounded=0;orthogonalLoop=1;jettySize=auto;html=1;" edge="1" parent="HBnFO21-F81Gqix5t91M-143" source="HBnFO21-F81Gqix5t91M-142" target="HBnFO21-F81Gqix5t91M-141">
          <mxGeometry relative="1" as="geometry" />
        </mxCell>
        <mxCell id="HBnFO21-F81Gqix5t91M-142" value="服务注册配置中心" style="text;html=1;strokeColor=none;fillColor=none;align=center;verticalAlign=middle;whiteSpace=wrap;rounded=0;strokeWidth=1;" vertex="1" parent="HBnFO21-F81Gqix5t91M-143">
          <mxGeometry x="85" y="10" width="100" height="30" as="geometry" />
        </mxCell>
        <mxCell id="HBnFO21-F81Gqix5t91M-144" value="服务熔断限流" style="text;html=1;strokeColor=none;fillColor=none;align=center;verticalAlign=middle;whiteSpace=wrap;rounded=0;strokeWidth=1;horizontal=1;" vertex="1" parent="1">
          <mxGeometry x="1950" y="780" width="80" height="30" as="geometry" />
        </mxCell>
        <mxCell id="HBnFO21-F81Gqix5t91M-154" value="注册" style="text;html=1;strokeColor=none;fillColor=none;align=center;verticalAlign=middle;whiteSpace=wrap;rounded=0;strokeWidth=1;horizontal=1;" vertex="1" parent="1">
          <mxGeometry x="1860" y="520" width="30" height="30" as="geometry" />
        </mxCell>
        <mxCell id="HBnFO21-F81Gqix5t91M-155" value="注册" style="text;html=1;strokeColor=none;fillColor=none;align=center;verticalAlign=middle;whiteSpace=wrap;rounded=0;strokeWidth=1;horizontal=1;" vertex="1" parent="1">
          <mxGeometry x="1990" y="522.5" width="40" height="25" as="geometry" />
        </mxCell>
        <mxCell id="HBnFO21-F81Gqix5t91M-167" style="edgeStyle=orthogonalEdgeStyle;rounded=0;orthogonalLoop=1;jettySize=auto;html=1;exitX=0.5;exitY=1;exitDx=0;exitDy=0;entryX=0.25;entryY=0;entryDx=0;entryDy=0;" edge="1" parent="1" source="HBnFO21-F81Gqix5t91M-156" target="HBnFO21-F81Gqix5t91M-130">
          <mxGeometry relative="1" as="geometry" />
        </mxCell>
        <mxCell id="HBnFO21-F81Gqix5t91M-156" value="流量控制" style="rounded=0;whiteSpace=wrap;html=1;strokeWidth=1;fillColor=default;" vertex="1" parent="1">
          <mxGeometry x="2100" y="370" width="120" height="60" as="geometry" />
        </mxCell>
        <mxCell id="HBnFO21-F81Gqix5t91M-170" style="edgeStyle=orthogonalEdgeStyle;rounded=0;orthogonalLoop=1;jettySize=auto;html=1;exitX=0.5;exitY=1;exitDx=0;exitDy=0;entryX=0.25;entryY=0;entryDx=0;entryDy=0;" edge="1" parent="1" source="HBnFO21-F81Gqix5t91M-157" target="HBnFO21-F81Gqix5t91M-130">
          <mxGeometry relative="1" as="geometry" />
        </mxCell>
        <mxCell id="HBnFO21-F81Gqix5t91M-157" value="服务监控" style="rounded=0;whiteSpace=wrap;html=1;strokeWidth=1;fillColor=default;" vertex="1" parent="1">
          <mxGeometry x="2260" y="370" width="120" height="60" as="geometry" />
        </mxCell>
        <mxCell id="HBnFO21-F81Gqix5t91M-173" style="edgeStyle=orthogonalEdgeStyle;rounded=0;orthogonalLoop=1;jettySize=auto;html=1;exitX=0.5;exitY=1;exitDx=0;exitDy=0;entryX=0.25;entryY=0;entryDx=0;entryDy=0;" edge="1" parent="1" source="HBnFO21-F81Gqix5t91M-158" target="HBnFO21-F81Gqix5t91M-130">
          <mxGeometry relative="1" as="geometry" />
        </mxCell>
        <mxCell id="HBnFO21-F81Gqix5t91M-158" value="链路追踪" style="rounded=0;whiteSpace=wrap;html=1;strokeWidth=1;fillColor=default;" vertex="1" parent="1">
          <mxGeometry x="2420" y="370" width="120" height="60" as="geometry" />
        </mxCell>
        <mxCell id="HBnFO21-F81Gqix5t91M-176" style="edgeStyle=orthogonalEdgeStyle;rounded=0;orthogonalLoop=1;jettySize=auto;html=1;exitX=0.5;exitY=1;exitDx=0;exitDy=0;entryX=0.25;entryY=0;entryDx=0;entryDy=0;" edge="1" parent="1" source="HBnFO21-F81Gqix5t91M-159" target="HBnFO21-F81Gqix5t91M-130">
          <mxGeometry relative="1" as="geometry" />
        </mxCell>
        <mxCell id="HBnFO21-F81Gqix5t91M-159" value="数据库监控" style="rounded=0;whiteSpace=wrap;html=1;strokeWidth=1;fillColor=default;" vertex="1" parent="1">
          <mxGeometry x="2580" y="370" width="120" height="60" as="geometry" />
        </mxCell>
        <mxCell id="HBnFO21-F81Gqix5t91M-177" value="MySQL集群" style="rounded=0;whiteSpace=wrap;html=1;strokeWidth=1;fillColor=default;" vertex="1" parent="1">
          <mxGeometry x="2870" y="370" width="120" height="60" as="geometry" />
        </mxCell>
        <mxCell id="HBnFO21-F81Gqix5t91M-178" value="Oracal集群" style="rounded=0;whiteSpace=wrap;html=1;strokeWidth=1;fillColor=default;" vertex="1" parent="1">
          <mxGeometry x="2740" y="370" width="120" height="60" as="geometry" />
        </mxCell>
        <mxCell id="HBnFO21-F81Gqix5t91M-179" value="MongoDB集群" style="rounded=0;whiteSpace=wrap;html=1;strokeWidth=1;fillColor=default;" vertex="1" parent="1">
          <mxGeometry x="3000" y="370" width="120" height="60" as="geometry" />
        </mxCell>
        <mxCell id="HBnFO21-F81Gqix5t91M-180" value="redis集群" style="rounded=0;whiteSpace=wrap;html=1;strokeWidth=1;fillColor=default;" vertex="1" parent="1">
          <mxGeometry x="3130" y="370" width="120" height="60" as="geometry" />
        </mxCell>
        <mxCell id="HBnFO21-F81Gqix5t91M-185" value="业务数据" style="text;html=1;strokeColor=none;fillColor=none;align=center;verticalAlign=middle;whiteSpace=wrap;rounded=0;dashed=1;strokeWidth=4;" vertex="1" parent="1">
          <mxGeometry x="2800" y="450" width="60" height="30" as="geometry" />
        </mxCell>
        <mxCell id="HBnFO21-F81Gqix5t91M-186" value="业务数据" style="text;html=1;strokeColor=none;fillColor=none;align=center;verticalAlign=middle;whiteSpace=wrap;rounded=0;dashed=1;strokeWidth=4;" vertex="1" parent="1">
          <mxGeometry x="2936" y="450" width="60" height="30" as="geometry" />
        </mxCell>
        <mxCell id="HBnFO21-F81Gqix5t91M-187" value="业务数据" style="text;html=1;strokeColor=none;fillColor=none;align=center;verticalAlign=middle;whiteSpace=wrap;rounded=0;dashed=1;strokeWidth=4;" vertex="1" parent="1">
          <mxGeometry x="3060" y="450" width="60" height="30" as="geometry" />
        </mxCell>
        <mxCell id="HBnFO21-F81Gqix5t91M-188" value="缓存数据" style="text;html=1;strokeColor=none;fillColor=none;align=center;verticalAlign=middle;whiteSpace=wrap;rounded=0;dashed=1;strokeWidth=4;" vertex="1" parent="1">
          <mxGeometry x="3190" y="450" width="60" height="30" as="geometry" />
        </mxCell>
        <mxCell id="HBnFO21-F81Gqix5t91M-194" value="其他服务2" style="rounded=0;whiteSpace=wrap;html=1;" vertex="1" parent="1">
          <mxGeometry x="2700" y="950" width="120" height="60" as="geometry" />
        </mxCell>
        <mxCell id="HBnFO21-F81Gqix5t91M-195" value="其他服务3" style="rounded=0;whiteSpace=wrap;html=1;" vertex="1" parent="1">
          <mxGeometry x="2850" y="950" width="120" height="60" as="geometry" />
        </mxCell>
        <mxCell id="HBnFO21-F81Gqix5t91M-196" value="其他服务4" style="rounded=0;whiteSpace=wrap;html=1;" vertex="1" parent="1">
          <mxGeometry x="3000" y="950" width="120" height="60" as="geometry" />
        </mxCell>
        <mxCell id="HBnFO21-F81Gqix5t91M-211" value="日志收集" style="text;html=1;align=center;verticalAlign=middle;resizable=0;points=[];autosize=1;strokeColor=none;fillColor=none;" vertex="1" parent="1">
          <mxGeometry x="3280" y="1105" width="70" height="30" as="geometry" />
        </mxCell>
        <mxCell id="HBnFO21-F81Gqix5t91M-221" style="edgeStyle=orthogonalEdgeStyle;rounded=0;orthogonalLoop=1;jettySize=auto;html=1;exitX=0.5;exitY=1;exitDx=0;exitDy=0;entryX=0.5;entryY=0;entryDx=0;entryDy=0;" edge="1" parent="1" source="HBnFO21-F81Gqix5t91M-220" target="HBnFO21-F81Gqix5t91M-1">
          <mxGeometry relative="1" as="geometry" />
        </mxCell>
        <mxCell id="HBnFO21-F81Gqix5t91M-220" value="公共类型" style="rounded=0;whiteSpace=wrap;html=1;" vertex="1" parent="1">
          <mxGeometry x="430" y="110" width="120" height="60" as="geometry" />
        </mxCell>
        <mxCell id="HBnFO21-F81Gqix5t91M-243" value="" style="group" vertex="1" connectable="0" parent="1">
          <mxGeometry x="2860" y="1150" width="140" height="260" as="geometry" />
        </mxCell>
        <mxCell id="HBnFO21-F81Gqix5t91M-225" value="" style="rounded=0;whiteSpace=wrap;html=1;strokeWidth=1;fillColor=default;" vertex="1" parent="HBnFO21-F81Gqix5t91M-243">
          <mxGeometry width="140" height="260" as="geometry" />
        </mxCell>
        <mxCell id="HBnFO21-F81Gqix5t91M-222" value="ElasticStack" style="rounded=0;whiteSpace=wrap;html=1;strokeWidth=1;fillColor=default;" vertex="1" parent="HBnFO21-F81Gqix5t91M-243">
          <mxGeometry x="10" y="40" width="120" height="60" as="geometry" />
        </mxCell>
        <mxCell id="HBnFO21-F81Gqix5t91M-226" value="SQL" style="rounded=0;whiteSpace=wrap;html=1;strokeWidth=1;fillColor=default;" vertex="1" parent="HBnFO21-F81Gqix5t91M-243">
          <mxGeometry x="10" y="110" width="120" height="60" as="geometry" />
        </mxCell>
        <mxCell id="HBnFO21-F81Gqix5t91M-227" value="solr" style="rounded=0;whiteSpace=wrap;html=1;strokeWidth=1;fillColor=default;" vertex="1" parent="HBnFO21-F81Gqix5t91M-243">
          <mxGeometry x="10" y="180" width="120" height="60" as="geometry" />
        </mxCell>
        <mxCell id="HBnFO21-F81Gqix5t91M-228" value="搜索引擎" style="text;html=1;align=center;verticalAlign=middle;resizable=0;points=[];autosize=1;strokeColor=none;fillColor=none;" vertex="1" parent="HBnFO21-F81Gqix5t91M-243">
          <mxGeometry x="35" y="3" width="70" height="30" as="geometry" />
        </mxCell>
        <mxCell id="HBnFO21-F81Gqix5t91M-244" value="" style="group" vertex="1" connectable="0" parent="1">
          <mxGeometry x="3020" y="1150" width="140" height="260" as="geometry" />
        </mxCell>
        <mxCell id="HBnFO21-F81Gqix5t91M-234" value="" style="rounded=0;whiteSpace=wrap;html=1;strokeWidth=1;fillColor=default;" vertex="1" parent="HBnFO21-F81Gqix5t91M-244">
          <mxGeometry width="140" height="260" as="geometry" />
        </mxCell>
        <mxCell id="HBnFO21-F81Gqix5t91M-224" value="阿里云对象存储" style="rounded=0;whiteSpace=wrap;html=1;strokeWidth=1;fillColor=default;" vertex="1" parent="HBnFO21-F81Gqix5t91M-244">
          <mxGeometry x="10" y="39" width="120" height="60" as="geometry" />
        </mxCell>
        <mxCell id="HBnFO21-F81Gqix5t91M-236" value="七牛云对象存储" style="rounded=0;whiteSpace=wrap;html=1;strokeWidth=1;fillColor=default;" vertex="1" parent="HBnFO21-F81Gqix5t91M-244">
          <mxGeometry x="10" y="110" width="120" height="60" as="geometry" />
        </mxCell>
        <mxCell id="HBnFO21-F81Gqix5t91M-237" value="本地文件存储" style="rounded=0;whiteSpace=wrap;html=1;strokeWidth=1;fillColor=default;" vertex="1" parent="HBnFO21-F81Gqix5t91M-244">
          <mxGeometry x="10" y="180" width="120" height="60" as="geometry" />
        </mxCell>
        <mxCell id="HBnFO21-F81Gqix5t91M-240" value="文件存储系统" style="text;html=1;align=center;verticalAlign=middle;resizable=0;points=[];autosize=1;strokeColor=none;fillColor=none;" vertex="1" parent="HBnFO21-F81Gqix5t91M-244">
          <mxGeometry x="20" y="2" width="100" height="30" as="geometry" />
        </mxCell>
        <mxCell id="HBnFO21-F81Gqix5t91M-247" value="" style="group" vertex="1" connectable="0" parent="1">
          <mxGeometry x="2700" y="1150" width="140" height="190" as="geometry" />
        </mxCell>
        <mxCell id="HBnFO21-F81Gqix5t91M-230" value="" style="rounded=0;whiteSpace=wrap;html=1;strokeWidth=1;fillColor=default;" vertex="1" parent="HBnFO21-F81Gqix5t91M-247">
          <mxGeometry width="140" height="190" as="geometry" />
        </mxCell>
        <mxCell id="HBnFO21-F81Gqix5t91M-223" value="Swagger文档" style="rounded=0;whiteSpace=wrap;html=1;strokeWidth=1;fillColor=default;" vertex="1" parent="HBnFO21-F81Gqix5t91M-247">
          <mxGeometry x="10" y="41" width="120" height="60" as="geometry" />
        </mxCell>
        <mxCell id="HBnFO21-F81Gqix5t91M-231" value="knife4j文档聚合" style="rounded=0;whiteSpace=wrap;html=1;strokeWidth=1;fillColor=default;" vertex="1" parent="HBnFO21-F81Gqix5t91M-247">
          <mxGeometry x="10" y="110" width="120" height="60" as="geometry" />
        </mxCell>
        <mxCell id="HBnFO21-F81Gqix5t91M-232" value="接口文档" style="text;html=1;align=center;verticalAlign=middle;resizable=0;points=[];autosize=1;strokeColor=none;fillColor=none;" vertex="1" parent="HBnFO21-F81Gqix5t91M-247">
          <mxGeometry x="35" y="2" width="70" height="30" as="geometry" />
        </mxCell>
        <mxCell id="HBnFO21-F81Gqix5t91M-248" value="" style="group" vertex="1" connectable="0" parent="1">
          <mxGeometry x="3195" y="1150" width="200" height="420" as="geometry" />
        </mxCell>
        <mxCell id="HBnFO21-F81Gqix5t91M-245" value="" style="rounded=0;whiteSpace=wrap;html=1;strokeWidth=1;fillColor=default;" vertex="1" parent="HBnFO21-F81Gqix5t91M-248">
          <mxGeometry width="170" height="420" as="geometry" />
        </mxCell>
        <mxCell id="HBnFO21-F81Gqix5t91M-204" value="Beats" style="rounded=0;whiteSpace=wrap;html=1;strokeWidth=1;fillColor=default;" vertex="1" parent="HBnFO21-F81Gqix5t91M-248">
          <mxGeometry x="10" y="10" width="120" height="60" as="geometry" />
        </mxCell>
        <mxCell id="HBnFO21-F81Gqix5t91M-205" value="Logstash" style="rounded=0;whiteSpace=wrap;html=1;strokeWidth=1;fillColor=default;" vertex="1" parent="HBnFO21-F81Gqix5t91M-248">
          <mxGeometry x="10" y="120" width="120" height="60" as="geometry" />
        </mxCell>
        <mxCell id="HBnFO21-F81Gqix5t91M-212" style="edgeStyle=orthogonalEdgeStyle;rounded=0;orthogonalLoop=1;jettySize=auto;html=1;exitX=0.5;exitY=1;exitDx=0;exitDy=0;entryX=0.5;entryY=0;entryDx=0;entryDy=0;" edge="1" parent="HBnFO21-F81Gqix5t91M-248" source="HBnFO21-F81Gqix5t91M-204" target="HBnFO21-F81Gqix5t91M-205">
          <mxGeometry relative="1" as="geometry" />
        </mxCell>
        <mxCell id="HBnFO21-F81Gqix5t91M-206" value="ElasticSearch" style="rounded=0;whiteSpace=wrap;html=1;strokeWidth=1;fillColor=default;" vertex="1" parent="HBnFO21-F81Gqix5t91M-248">
          <mxGeometry x="10" y="230" width="120" height="60" as="geometry" />
        </mxCell>
        <mxCell id="HBnFO21-F81Gqix5t91M-214" style="edgeStyle=orthogonalEdgeStyle;rounded=0;orthogonalLoop=1;jettySize=auto;html=1;exitX=0.5;exitY=1;exitDx=0;exitDy=0;entryX=0.5;entryY=0;entryDx=0;entryDy=0;" edge="1" parent="HBnFO21-F81Gqix5t91M-248" source="HBnFO21-F81Gqix5t91M-205" target="HBnFO21-F81Gqix5t91M-206">
          <mxGeometry relative="1" as="geometry" />
        </mxCell>
        <mxCell id="HBnFO21-F81Gqix5t91M-207" value="kibana" style="rounded=0;whiteSpace=wrap;html=1;strokeWidth=1;fillColor=default;" vertex="1" parent="HBnFO21-F81Gqix5t91M-248">
          <mxGeometry x="10" y="350" width="120" height="60" as="geometry" />
        </mxCell>
        <mxCell id="HBnFO21-F81Gqix5t91M-216" style="edgeStyle=orthogonalEdgeStyle;rounded=0;orthogonalLoop=1;jettySize=auto;html=1;exitX=0.5;exitY=1;exitDx=0;exitDy=0;entryX=0.5;entryY=0;entryDx=0;entryDy=0;" edge="1" parent="HBnFO21-F81Gqix5t91M-248" source="HBnFO21-F81Gqix5t91M-206" target="HBnFO21-F81Gqix5t91M-207">
          <mxGeometry relative="1" as="geometry" />
        </mxCell>
        <mxCell id="HBnFO21-F81Gqix5t91M-213" value="日志处理" style="text;html=1;align=center;verticalAlign=middle;resizable=0;points=[];autosize=1;strokeColor=none;fillColor=none;" vertex="1" parent="HBnFO21-F81Gqix5t91M-248">
          <mxGeometry x="65" y="80" width="70" height="30" as="geometry" />
        </mxCell>
        <mxCell id="HBnFO21-F81Gqix5t91M-215" value="日志存储" style="text;html=1;align=center;verticalAlign=middle;resizable=0;points=[];autosize=1;strokeColor=none;fillColor=none;" vertex="1" parent="HBnFO21-F81Gqix5t91M-248">
          <mxGeometry x="64" y="190" width="70" height="30" as="geometry" />
        </mxCell>
        <mxCell id="HBnFO21-F81Gqix5t91M-217" value="数据可视化" style="text;html=1;align=center;verticalAlign=middle;resizable=0;points=[];autosize=1;strokeColor=none;fillColor=none;" vertex="1" parent="HBnFO21-F81Gqix5t91M-248">
          <mxGeometry x="70" y="310" width="80" height="30" as="geometry" />
        </mxCell>
        <mxCell id="HBnFO21-F81Gqix5t91M-246" value="&lt;span style=&quot;&quot;&gt;ElasticStack&lt;/span&gt;" style="text;html=1;align=center;verticalAlign=middle;resizable=0;points=[];autosize=1;strokeColor=none;fillColor=none;horizontal=0;" vertex="1" parent="HBnFO21-F81Gqix5t91M-248">
          <mxGeometry x="110" y="190" width="90" height="30" as="geometry" />
        </mxCell>
        <mxCell id="HBnFO21-F81Gqix5t91M-253" value="" style="endArrow=classic;html=1;rounded=0;entryX=0.5;entryY=0;entryDx=0;entryDy=0;exitX=0.95;exitY=1.001;exitDx=0;exitDy=0;exitPerimeter=0;" edge="1" parent="1" source="HBnFO21-F81Gqix5t91M-166" target="HBnFO21-F81Gqix5t91M-245">
          <mxGeometry width="50" height="50" relative="1" as="geometry">
            <mxPoint x="3280" y="1090" as="sourcePoint" />
            <mxPoint x="3230" y="1120" as="targetPoint" />
          </mxGeometry>
        </mxCell>
        <mxCell id="HBnFO21-F81Gqix5t91M-254" value="" style="endArrow=classic;html=1;rounded=0;entryX=0.5;entryY=0;entryDx=0;entryDy=0;exitX=0.83;exitY=1;exitDx=0;exitDy=0;exitPerimeter=0;" edge="1" parent="1" source="HBnFO21-F81Gqix5t91M-166" target="HBnFO21-F81Gqix5t91M-234">
          <mxGeometry width="50" height="50" relative="1" as="geometry">
            <mxPoint x="3070" y="1170" as="sourcePoint" />
            <mxPoint x="3120" y="1120" as="targetPoint" />
          </mxGeometry>
        </mxCell>
        <mxCell id="HBnFO21-F81Gqix5t91M-255" value="" style="endArrow=classic;html=1;rounded=0;entryX=0.5;entryY=0;entryDx=0;entryDy=0;exitX=0.73;exitY=1.002;exitDx=0;exitDy=0;exitPerimeter=0;" edge="1" parent="1" source="HBnFO21-F81Gqix5t91M-166" target="HBnFO21-F81Gqix5t91M-225">
          <mxGeometry width="50" height="50" relative="1" as="geometry">
            <mxPoint x="2830" y="1160" as="sourcePoint" />
            <mxPoint x="2880" y="1110" as="targetPoint" />
          </mxGeometry>
        </mxCell>
        <mxCell id="HBnFO21-F81Gqix5t91M-257" value="" style="endArrow=classic;html=1;rounded=0;entryX=0.5;entryY=0;entryDx=0;entryDy=0;exitX=0.629;exitY=1.001;exitDx=0;exitDy=0;exitPerimeter=0;" edge="1" parent="1" source="HBnFO21-F81Gqix5t91M-166" target="HBnFO21-F81Gqix5t91M-230">
          <mxGeometry width="50" height="50" relative="1" as="geometry">
            <mxPoint x="2820" y="1190" as="sourcePoint" />
            <mxPoint x="2870" y="1140" as="targetPoint" />
          </mxGeometry>
        </mxCell>
        <mxCell id="HBnFO21-F81Gqix5t91M-258" value="文件存储" style="text;html=1;align=center;verticalAlign=middle;resizable=0;points=[];autosize=1;strokeColor=none;fillColor=none;" vertex="1" parent="1">
          <mxGeometry x="2770" y="1105" width="70" height="30" as="geometry" />
        </mxCell>
        <mxCell id="HBnFO21-F81Gqix5t91M-259" value="接口调试" style="text;html=1;align=center;verticalAlign=middle;resizable=0;points=[];autosize=1;strokeColor=none;fillColor=none;" vertex="1" parent="1">
          <mxGeometry x="3090" y="1105" width="70" height="30" as="geometry" />
        </mxCell>
        <mxCell id="HBnFO21-F81Gqix5t91M-260" value="搜索" style="text;html=1;align=center;verticalAlign=middle;resizable=0;points=[];autosize=1;strokeColor=none;fillColor=none;" vertex="1" parent="1">
          <mxGeometry x="2935" y="1105" width="50" height="30" as="geometry" />
        </mxCell>
        <mxCell id="HBnFO21-F81Gqix5t91M-280" style="edgeStyle=orthogonalEdgeStyle;rounded=0;orthogonalLoop=1;jettySize=auto;html=1;exitX=0.5;exitY=1;exitDx=0;exitDy=0;entryX=0.5;entryY=0;entryDx=0;entryDy=0;" edge="1" parent="1" source="HBnFO21-F81Gqix5t91M-261" target="HBnFO21-F81Gqix5t91M-272">
          <mxGeometry relative="1" as="geometry" />
        </mxCell>
        <mxCell id="HBnFO21-F81Gqix5t91M-261" value="Gitee代码托管" style="rounded=0;whiteSpace=wrap;html=1;strokeWidth=1;fillColor=default;" vertex="1" parent="1">
          <mxGeometry x="2108" y="1150" width="120" height="60" as="geometry" />
        </mxCell>
        <mxCell id="HBnFO21-F81Gqix5t91M-277" style="edgeStyle=orthogonalEdgeStyle;rounded=0;orthogonalLoop=1;jettySize=auto;html=1;exitX=0.5;exitY=1;exitDx=0;exitDy=0;entryX=0.5;entryY=0;entryDx=0;entryDy=0;" edge="1" parent="1" source="HBnFO21-F81Gqix5t91M-262" target="HBnFO21-F81Gqix5t91M-272">
          <mxGeometry relative="1" as="geometry" />
        </mxCell>
        <mxCell id="HBnFO21-F81Gqix5t91M-262" value="GitHub代码托管" style="rounded=0;whiteSpace=wrap;html=1;strokeWidth=1;fillColor=default;" vertex="1" parent="1">
          <mxGeometry x="1848" y="1150" width="120" height="60" as="geometry" />
        </mxCell>
        <mxCell id="HBnFO21-F81Gqix5t91M-281" style="edgeStyle=orthogonalEdgeStyle;rounded=0;orthogonalLoop=1;jettySize=auto;html=1;exitX=0.5;exitY=1;exitDx=0;exitDy=0;entryX=0.5;entryY=0;entryDx=0;entryDy=0;" edge="1" parent="1" source="HBnFO21-F81Gqix5t91M-263" target="HBnFO21-F81Gqix5t91M-272">
          <mxGeometry relative="1" as="geometry" />
        </mxCell>
        <mxCell id="HBnFO21-F81Gqix5t91M-263" value="私服代码托管" style="rounded=0;whiteSpace=wrap;html=1;strokeWidth=1;fillColor=default;" vertex="1" parent="1">
          <mxGeometry x="2390" y="1150" width="120" height="60" as="geometry" />
        </mxCell>
        <mxCell id="HBnFO21-F81Gqix5t91M-282" style="edgeStyle=orthogonalEdgeStyle;rounded=0;orthogonalLoop=1;jettySize=auto;html=1;exitX=1;exitY=0.5;exitDx=0;exitDy=0;entryX=0;entryY=0.5;entryDx=0;entryDy=0;" edge="1" parent="1" source="HBnFO21-F81Gqix5t91M-268" target="HBnFO21-F81Gqix5t91M-272">
          <mxGeometry relative="1" as="geometry" />
        </mxCell>
        <mxCell id="HBnFO21-F81Gqix5t91M-268" value="Docker私服" style="rounded=0;whiteSpace=wrap;html=1;strokeWidth=1;fillColor=default;" vertex="1" parent="1">
          <mxGeometry x="1968" y="1280" width="120" height="60" as="geometry" />
        </mxCell>
        <mxCell id="HBnFO21-F81Gqix5t91M-285" style="edgeStyle=orthogonalEdgeStyle;rounded=0;orthogonalLoop=1;jettySize=auto;html=1;exitX=1;exitY=0.5;exitDx=0;exitDy=0;entryX=0;entryY=0.5;entryDx=0;entryDy=0;" edge="1" parent="1" source="HBnFO21-F81Gqix5t91M-269" target="HBnFO21-F81Gqix5t91M-272">
          <mxGeometry relative="1" as="geometry" />
        </mxCell>
        <mxCell id="HBnFO21-F81Gqix5t91M-269" value="Maven私服" style="rounded=0;whiteSpace=wrap;html=1;strokeWidth=1;fillColor=default;" vertex="1" parent="1">
          <mxGeometry x="1968" y="1350" width="120" height="60" as="geometry" />
        </mxCell>
        <mxCell id="HBnFO21-F81Gqix5t91M-286" style="edgeStyle=orthogonalEdgeStyle;rounded=0;orthogonalLoop=1;jettySize=auto;html=1;exitX=1;exitY=0.5;exitDx=0;exitDy=0;entryX=0;entryY=0.5;entryDx=0;entryDy=0;" edge="1" parent="1" source="HBnFO21-F81Gqix5t91M-270" target="HBnFO21-F81Gqix5t91M-272">
          <mxGeometry relative="1" as="geometry" />
        </mxCell>
        <mxCell id="HBnFO21-F81Gqix5t91M-270" value="npm私服" style="rounded=0;whiteSpace=wrap;html=1;strokeWidth=1;fillColor=default;" vertex="1" parent="1">
          <mxGeometry x="1968" y="1420" width="120" height="60" as="geometry" />
        </mxCell>
        <mxCell id="HBnFO21-F81Gqix5t91M-271" value="提交代码" style="text;html=1;align=center;verticalAlign=middle;resizable=0;points=[];autosize=1;strokeColor=none;fillColor=none;" vertex="1" parent="1">
          <mxGeometry x="2170" y="1090" width="70" height="30" as="geometry" />
        </mxCell>
        <mxCell id="HBnFO21-F81Gqix5t91M-272" value="" style="rounded=0;whiteSpace=wrap;html=1;strokeWidth=1;fillColor=default;" vertex="1" parent="1">
          <mxGeometry x="2250" y="1260" width="140" height="240" as="geometry" />
        </mxCell>
        <mxCell id="HBnFO21-F81Gqix5t91M-273" value="GitHubAction" style="rounded=0;whiteSpace=wrap;html=1;strokeWidth=1;fillColor=default;" vertex="1" parent="1">
          <mxGeometry x="2260" y="1280" width="120" height="60" as="geometry" />
        </mxCell>
        <mxCell id="HBnFO21-F81Gqix5t91M-274" value="服务器" style="rounded=0;whiteSpace=wrap;html=1;strokeWidth=1;fillColor=default;" vertex="1" parent="1">
          <mxGeometry x="2260" y="1350" width="120" height="60" as="geometry" />
        </mxCell>
        <mxCell id="HBnFO21-F81Gqix5t91M-276" value="编译打包部署" style="rounded=0;whiteSpace=wrap;html=1;strokeWidth=1;fillColor=default;" vertex="1" parent="1">
          <mxGeometry x="2260" y="1420" width="120" height="60" as="geometry" />
        </mxCell>
      </root>
    </mxGraphModel>
  </diagram>
</mxfile>
